<svg xmlns="http://www.w3.org/2000/svg" width="40" height="27" fill="none" viewBox="0 0 40 27"><rect width="40" height="27" fill="#1F72CD" rx="4"/><path fill="#fff" fill-rule="evenodd" d="M7.171 9.563 3.43 17.715h4.48l.555-1.3h1.27l.555 1.3h4.932v-.992l.44.992h2.55l.44-1.013v1.013h10.256l1.247-1.266 1.168 1.266 5.268.01-3.755-4.063 3.755-4.1h-5.187l-1.213 1.243-1.132-1.242H17.901l-.958 2.104-.98-2.104h-4.471v.958l-.498-.959H7.171Zm.867 1.157h2.184l2.482 5.528V10.72h2.393l1.917 3.964 1.767-3.964h2.38v5.85h-1.448l-.012-4.584-2.111 4.584h-1.296l-2.124-4.584v4.584h-2.98l-.564-1.311H7.574l-.564 1.31H5.413l2.625-5.849Zm20.338 0h-5.89v5.847h5.8l1.868-1.938 1.801 1.938h1.883l-2.737-2.907 2.737-2.94h-1.8l-1.86 1.916-1.802-1.916ZM9.1 11.71l-1.005 2.336h2.01L9.1 11.71ZM23.941 13V11.93h3.675l1.604 1.707-1.675 1.717h-3.604V14.19h3.213V13h-3.213Z" clip-rule="evenodd"/></svg>