<svg width="32" height="32" viewBox="0 0 32 32" fill="none" xmlns="http://www.w3.org/2000/svg">
<path d="M16.3477 17.6543C17.2613 17.6543 18.002 16.9137 18.002 16C18.002 15.0864 17.2613 14.3457 16.3477 14.3457C15.434 14.3457 14.6934 15.0864 14.6934 16C14.6934 16.9137 15.434 17.6543 16.3477 17.6543Z" fill="#222222"/>
<path d="M16.3477 12.5076C17.2613 12.5076 18.002 11.7669 18.002 10.8533C18.002 9.93963 17.2613 9.19897 16.3477 9.19897C15.434 9.19897 14.6934 9.93963 14.6934 10.8533C14.6934 11.7669 15.434 12.5076 16.3477 12.5076Z" fill="#222222"/>
<path d="M16.3477 7.36073C17.2613 7.36073 18.002 6.62007 18.002 5.70643C18.002 4.79278 17.2613 4.05212 16.3477 4.05212C15.434 4.05212 14.6934 4.79278 14.6934 5.70643C14.6934 6.62007 15.434 7.36073 16.3477 7.36073Z" fill="#222222"/>
<path d="M16.3477 22.801C17.2613 22.801 18.002 22.0604 18.002 21.1467C18.002 20.2331 17.2613 19.4924 16.3477 19.4924C15.434 19.4924 14.6934 20.2331 14.6934 21.1467C14.6934 22.0604 15.434 22.801 16.3477 22.801Z" fill="#222222"/>
<path d="M16.3477 27.9479C17.2613 27.9479 18.002 27.2072 18.002 26.2936C18.002 25.3799 17.2613 24.6393 16.3477 24.6393C15.434 24.6393 14.6934 25.3799 14.6934 26.2936C14.6934 27.2072 15.434 27.9479 16.3477 27.9479Z" fill="#222222"/>
<path d="M11.2009 17.3787C11.9622 17.3787 12.5795 16.7614 12.5795 16.0001C12.5795 15.2387 11.9622 14.6215 11.2009 14.6215C10.4395 14.6215 9.82227 15.2387 9.82227 16.0001C9.82227 16.7614 10.4395 17.3787 11.2009 17.3787Z" fill="#222222"/>
<path d="M11.2009 12.2318C11.9622 12.2318 12.5795 11.6146 12.5795 10.8532C12.5795 10.0918 11.9622 9.47461 11.2009 9.47461C10.4395 9.47461 9.82227 10.0918 9.82227 10.8532C9.82227 11.6146 10.4395 12.2318 11.2009 12.2318Z" fill="#222222"/>
<path d="M11.2009 22.5254C11.9622 22.5254 12.5795 21.9082 12.5795 21.1468C12.5795 20.3854 11.9622 19.7682 11.2009 19.7682C10.4395 19.7682 9.82227 20.3854 9.82227 21.1468C9.82227 21.9082 10.4395 22.5254 11.2009 22.5254Z" fill="#222222"/>
<path d="M21.4945 17.9301C22.5605 17.9301 23.4246 17.066 23.4246 16C23.4246 14.9341 22.5605 14.0699 21.4945 14.0699C20.4286 14.0699 19.5645 14.9341 19.5645 16C19.5645 17.066 20.4286 17.9301 21.4945 17.9301Z" fill="#222222"/>
<path d="M21.4945 12.7832C22.5605 12.7832 23.4246 11.9191 23.4246 10.8532C23.4246 9.78722 22.5605 8.9231 21.4945 8.9231C20.4286 8.9231 19.5645 9.78722 19.5645 10.8532C19.5645 11.9191 20.4286 12.7832 21.4945 12.7832Z" fill="#222222"/>
<path d="M21.4945 23.0768C22.5605 23.0768 23.4246 22.2127 23.4246 21.1467C23.4246 20.0808 22.5605 19.2167 21.4945 19.2167C20.4286 19.2167 19.5645 20.0808 19.5645 21.1467C19.5645 22.2127 20.4286 23.0768 21.4945 23.0768Z" fill="#222222"/>
<path d="M6.05406 17.1029C6.66317 17.1029 7.15695 16.6091 7.15695 16C7.15695 15.3909 6.66317 14.8971 6.05406 14.8971C5.44495 14.8971 4.95117 15.3909 4.95117 16C4.95117 16.6091 5.44495 17.1029 6.05406 17.1029Z" fill="#222222"/>
<path d="M26.6413 18.2057C27.8595 18.2057 28.8471 17.2182 28.8471 16C28.8471 14.7818 27.8595 13.7942 26.6413 13.7942C25.4231 13.7942 24.4355 14.7818 24.4355 16C24.4355 17.2182 25.4231 18.2057 26.6413 18.2057Z" fill="#222222"/>
</svg>
