<svg width="41" height="40" viewBox="0 0 41 40" fill="none" xmlns="http://www.w3.org/2000/svg">
<path d="M11.371 17.3497C11.3097 17.227 11.144 17.1288 11.0091 17.1288H10.7269C10.5919 17.1288 10.4262 17.2331 10.371 17.3558L8.15017 21.9939C8.08882 22.1166 8.15631 22.2024 8.29128 22.2024H8.80662C9.00907 22.2024 9.10109 22.1104 9.15631 22C9.21152 21.8896 9.33422 21.6442 9.35876 21.589C9.38944 21.5215 9.4876 21.4785 9.62257 21.4785H12.0152C12.1502 21.4785 12.2422 21.5031 12.2851 21.589C12.3097 21.6442 12.4324 21.865 12.4937 21.9816C12.5551 22.1043 12.6532 22.2024 12.8557 22.2024H13.598C13.733 22.2024 13.7943 22.0982 13.7453 22C13.6962 21.9018 11.371 17.3497 11.371 17.3497ZM9.96613 20.7607C9.83116 20.7607 9.76367 20.6564 9.81889 20.5337L10.6962 18.6564C10.7514 18.5337 10.8496 18.5337 10.9048 18.6564L11.7575 20.5337C11.8128 20.6564 11.7453 20.7607 11.6103 20.7607H9.96613ZM28.5367 17.3865V21.9939C28.5367 22.1227 28.6471 22.2086 28.7882 22.2086H29.3956C29.5305 22.2086 29.6471 22.1227 29.6471 21.9816V17.3804C29.6471 17.2454 29.5551 17.1288 29.4201 17.1288H28.7882C28.6532 17.1227 28.5367 17.2086 28.5367 17.3865ZM18.3649 20.2699C18.2851 20.1595 18.3281 20.0307 18.4631 19.9939C18.4631 19.9939 18.9907 19.8344 19.2361 19.6135C19.4876 19.3865 19.6164 19.0613 19.6164 18.638C19.6164 18.362 19.5674 18.1288 19.4692 17.9386C19.371 17.7485 19.2361 17.5951 19.052 17.4785C18.8741 17.362 18.6532 17.2699 18.4017 17.2147C18.1502 17.1595 17.8128 17.1472 17.8128 17.1472C17.6778 17.1411 17.4508 17.135 17.3097 17.135H14.7882C14.6532 17.135 14.5367 17.2454 14.5367 17.3865V21.9877C14.5367 22.1227 14.6471 22.2147 14.7882 22.2147H15.3833C15.5183 22.2147 15.6348 22.1288 15.6348 21.9877V20.1595H16.7637C16.8986 20.1595 17.0766 20.2515 17.1563 20.362L18.3281 22.0123C18.4385 22.1595 18.5428 22.2147 18.6778 22.2147H19.4569C19.5919 22.2147 19.6164 22.0859 19.5674 22.0184C19.5367 21.9386 18.3649 20.2699 18.3649 20.2699ZM17.8925 19.3313C17.7391 19.3681 17.5612 19.3742 17.5612 19.3742C17.4262 19.3804 17.1993 19.3865 17.0581 19.3865H15.8925C15.7575 19.3865 15.641 19.2761 15.641 19.135V18.2025C15.641 18.0675 15.7514 17.9509 15.8925 17.9509H17.0581C17.1931 17.9509 17.4201 17.9571 17.5612 17.9632C17.5612 17.9632 17.733 17.9693 17.8925 18.0061C18.0459 18.0429 18.1686 18.092 18.2606 18.1534C18.3526 18.2209 18.414 18.2945 18.4508 18.3804C18.4876 18.4663 18.506 18.5644 18.506 18.6687C18.506 18.773 18.4876 18.865 18.4508 18.9571C18.414 19.0429 18.3465 19.1227 18.2606 19.184C18.1686 19.2454 18.0459 19.3006 17.8925 19.3313ZM35.9907 17.1227C35.8557 17.1227 35.7391 17.2147 35.7391 17.3436V20.2883C35.7391 20.4233 35.6594 20.4601 35.5674 20.3558L32.6226 17.3006C32.5244 17.2025 32.3894 17.1227 32.1993 17.1227H31.6471C31.4753 17.1227 31.3956 17.2147 31.3956 17.3067V22.0123C31.3956 22.1043 31.4876 22.1963 31.6226 22.1963H32.1747C32.3097 22.1963 32.4078 22.1227 32.4078 21.9939C32.4078 21.9325 32.4078 18.8957 32.4078 18.8957C32.4078 18.7607 32.4876 18.7239 32.5796 18.8282L35.6532 22.0245C35.7514 22.1227 35.868 22.2024 36.0827 22.2024H36.4999C36.6348 22.2024 36.7514 22.092 36.7514 21.9509V17.3742C36.7514 17.2393 36.641 17.1227 36.4999 17.1227H35.9907ZM23.9723 19.9939C23.9048 20.1166 23.7943 20.1166 23.7269 19.9939L22.2851 17.3497C22.2238 17.227 22.1011 17.1288 21.9232 17.1288H21.1502C21.0152 17.1288 20.8986 17.2393 20.8986 17.3804V21.9755C20.8986 22.1104 20.9907 22.2086 21.1502 22.2086H21.6348C21.7698 22.2086 21.8741 22.1227 21.8741 21.9877C21.8741 21.9264 21.8741 18.6442 21.8802 18.6442C21.8864 18.6442 23.6778 21.9877 23.6778 21.9877C23.7453 22.1104 23.9048 22.1104 23.9661 21.9877L25.7759 18.6564C25.7821 18.6564 25.7821 21.8957 25.7821 21.9877C25.7821 22.1227 25.8864 22.2086 26.0275 22.2086H26.5858C26.7207 22.2086 26.8373 22.1411 26.8373 21.9571V17.3804C26.8373 17.2454 26.7269 17.1288 26.5858 17.1288H25.8373C25.6471 17.1288 25.5305 17.227 25.4631 17.3436L23.9723 19.9939ZM1.76367 19.6564C1.76367 22.135 4.29741 22.2638 4.80662 22.2638C6.4876 22.2638 7.19925 21.8098 7.22993 21.7914C7.33422 21.7301 7.46306 21.6135 7.46306 21.3865V19.6748C7.46306 19.5153 7.33422 19.3865 7.17471 19.3865H5.06429C4.90478 19.3865 4.80048 19.5153 4.80048 19.6748V19.8528C4.80048 20.0123 4.90478 20.1411 5.06429 20.1411H6.28514C6.40171 20.1411 6.49987 20.2393 6.49987 20.3558C6.49987 20.3558 6.49987 21.1043 6.49987 21.1534C6.2606 21.2515 5.15631 21.5705 4.27287 21.362C2.99067 21.0552 2.89251 19.9939 2.89251 19.681C2.89251 19.4172 2.97226 18.0798 4.54895 17.9448C5.82502 17.8344 6.66551 18.3497 6.67165 18.3558C6.81889 18.4356 6.9784 18.3804 7.05815 18.2209L7.21766 17.8957C7.28514 17.7607 7.2606 17.6258 7.10109 17.5153C7.08882 17.5092 6.19925 17.0245 4.80662 17.0245C1.84956 17.0245 1.76367 19.3865 1.76367 19.6564ZM37.9968 21.1472C38.3158 21.1472 38.5735 21.4049 38.5735 21.7239C38.5735 22.0429 38.3158 22.3006 37.9968 22.3006C37.6778 22.3006 37.4201 22.0429 37.4201 21.7239C37.414 21.4049 37.6778 21.1472 37.9968 21.1472ZM37.9968 22.2147C38.2606 22.2147 38.4631 22 38.4631 21.7239C38.4631 21.4478 38.2606 21.2331 37.9968 21.2331C37.7269 21.2331 37.5244 21.4478 37.5244 21.7239C37.5244 22 37.7269 22.2147 37.9968 22.2147ZM37.7759 21.3865H38.0336C38.187 21.3865 38.2667 21.4478 38.2667 21.5767C38.2667 21.6871 38.1993 21.7669 38.0888 21.7669L38.279 22.0675H38.1624L37.9723 21.7669H37.8802V22.0675H37.7759V21.3865ZM37.8864 21.6748H38.0152C38.1011 21.6748 38.1563 21.6564 38.1563 21.5705C38.1563 21.4908 38.0888 21.4724 38.0152 21.4724H37.8864V21.6748Z" fill="black"/>
</svg>
