<svg xmlns="http://www.w3.org/2000/svg" width="40" height="27" fill="none" viewBox="0 0 40 27"><rect width="39" height="26" x=".5" y=".5" fill="#fff" stroke="#D9D9D9" rx="3.5"/><path fill="#3C4043" d="M29.711 16.13h.018l1.417-3.558h.997l-3.063 7.134h-.946l1.139-2.496-2.01-4.638h.996l1.452 3.558Zm-4.793-3.72c.677 0 1.212.185 1.605.548.393.364.586.873.586 1.514v3.056h-.877v-.688h-.04c-.38.566-.882.85-1.514.85-.535 0-.99-.162-1.35-.486a1.542 1.542 0 0 1-.54-1.212c0-.515.193-.919.575-1.225.381-.306.893-.457 1.531-.457.547 0 .99.104 1.344.3v-.213c0-.318-.137-.618-.376-.826a1.321 1.321 0 0 0-.882-.341c-.512 0-.917.22-1.213.658l-.808-.514c.432-.64 1.087-.964 1.959-.964Zm-4.345-2.126a2.162 2.162 0 0 1 1.571.63c.831.785.883 2.108.103 2.957l-.103.104c-.427.41-.95.618-1.571.618h-1.515v2.935h-.917v-7.244h2.432Zm4.464 4.777c-.37 0-.683.092-.934.271-.245.18-.37.405-.37.676 0 .243.114.469.302.608.205.161.455.248.712.242.387 0 .756-.157 1.03-.434.302-.289.456-.63.456-1.022-.285-.231-.684-.347-1.196-.341Zm-5.979-1.357h1.537c.342.011.673-.127.907-.376a1.288 1.288 0 0 0-.03-1.796 1.242 1.242 0 0 0-.877-.359h-1.537v2.53Z"/><path fill="#4285F4" d="M15.893 13.958c0-.283-.023-.566-.069-.844h-3.866v1.6h2.215a1.928 1.928 0 0 1-.82 1.266v1.04h1.321c.775-.722 1.219-1.791 1.219-3.062Z"/><path fill="#34A853" d="M11.958 18.025c1.105 0 2.039-.37 2.716-1.005l-1.32-1.04c-.37.254-.843.399-1.396.399-1.07 0-1.975-.734-2.3-1.716h-1.36v1.074a4.09 4.09 0 0 0 3.66 2.288Z"/><path fill="#FBBC04" d="M9.658 14.663a2.544 2.544 0 0 1 0-1.595V12H8.297a4.177 4.177 0 0 0 0 3.732l1.361-1.07Z"/><path fill="#EA4335" d="M11.958 11.353a2.19 2.19 0 0 1 1.572.624l1.173-1.19a3.926 3.926 0 0 0-2.745-1.08c-1.548 0-2.966.889-3.66 2.293l1.36 1.074c.325-.988 1.23-1.721 2.3-1.721Z"/></svg>