<svg xmlns="http://www.w3.org/2000/svg" width="40" height="27" fill="none" viewBox="0 0 40 27"><rect width="39" height="26" x=".5" y=".5" fill="#fff" stroke="#D9D9D9" rx="3.5"/><path fill="#ED0006" d="M22.656 13.169c0 4.166-3.491 7.544-7.799 7.544-4.307 0-7.798-3.378-7.798-7.544 0-4.166 3.491-7.544 7.798-7.544 4.308 0 7.799 3.378 7.799 7.544Z"/><path fill="#0099DF" d="M32.773 13.169c0 4.166-3.492 7.544-7.799 7.544-4.306 0-7.798-3.378-7.798-7.544 0-4.166 3.492-7.544 7.799-7.544 4.306 0 7.798 3.378 7.798 7.544Z"/><path fill="#6C6BBD" fill-rule="evenodd" d="M19.916 18.91c-1.677-1.383-2.74-3.442-2.74-5.741 0-2.3 1.063-4.358 2.74-5.742 1.677 1.384 2.74 3.443 2.74 5.742 0 2.3-1.063 4.358-2.74 5.742Z" clip-rule="evenodd"/></svg>