<svg xmlns="http://www.w3.org/2000/svg" width="40" height="27" fill="none" viewBox="0 0 40 27"><rect width="39" height="26" x=".5" y=".5" fill="#fff" stroke="#D9D9D9" rx="3.5"/><path fill="#ED0006" fill-rule="evenodd" d="M20.21 18.933a8.225 8.225 0 0 1-5.174 1.8c-4.406 0-7.977-3.374-7.977-7.537S10.63 5.66 15.036 5.66c1.975 0 3.782.678 5.175 1.8a8.225 8.225 0 0 1 5.174-1.8c4.406 0 7.977 3.374 7.977 7.537s-3.571 7.538-7.977 7.538a8.225 8.225 0 0 1-5.174-1.8Z" clip-rule="evenodd"/><path fill="#F9A000" fill-rule="evenodd" d="M20.21 18.933c1.716-1.382 2.803-3.44 2.803-5.737s-1.087-4.354-2.802-5.737a8.225 8.225 0 0 1 5.174-1.8c4.406 0 7.977 3.374 7.977 7.537s-3.571 7.538-7.977 7.538a8.225 8.225 0 0 1-5.174-1.8Z" clip-rule="evenodd"/><path fill="#FF5E00" fill-rule="evenodd" d="M20.21 18.933c1.716-1.383 2.803-3.44 2.803-5.737s-1.087-4.354-2.802-5.737c-1.716 1.383-2.803 3.44-2.803 5.737s1.087 4.354 2.803 5.737Z" clip-rule="evenodd"/></svg>