<svg width="41" height="30" viewBox="0 0 41 30" fill="none" xmlns="http://www.w3.org/2000/svg">
<path d="M5.39445 10.575H9.79945V9.625H5.39445V10.575ZM25.5195 15.665H22.4395V12.505H25.5195C26.6195 12.505 27.3545 13.14 27.3545 14.085C27.3545 15.03 26.6195 15.665 25.5195 15.665ZM26.5395 16.405C27.5945 16.105 28.2795 15.195 28.2795 14.085C28.2795 12.65 27.1695 11.685 25.5195 11.685H21.5145V20.175H22.4395V16.5H25.5745L27.5695 20.175H28.5695L26.4895 16.42L26.5395 16.405ZM16.7145 20.335C18.9845 20.335 20.5645 18.74 20.5645 16.46V11.685H19.6145V16.395C19.6145 18.155 18.4195 19.38 16.7145 19.38C15.2995 19.38 13.7745 18.445 13.7745 16.395V11.685H12.8245V16.46C12.8245 18.74 14.4245 20.335 16.7145 20.335ZM33.3045 12.79L35.3095 17.175H31.2895L33.3045 12.79ZM32.8595 11.685L28.9795 20.175H29.9745L30.9345 18H35.6695L36.6295 20.175H37.6245L33.7445 11.685H32.8595ZM7.59445 11.525C5.16445 11.525 3.18945 13.5 3.18945 15.93C3.18945 18.36 5.16445 20.335 7.59445 20.335C10.0245 20.335 11.9995 18.36 11.9995 15.93C11.9995 13.5 10.0245 11.525 7.59445 11.525ZM7.59445 19.385C5.68945 19.385 4.13945 17.835 4.13945 15.93C4.13945 14.025 5.68945 12.475 7.59445 12.475C9.49945 12.475 11.0495 14.025 11.0495 15.93C11.0495 17.835 9.49945 19.385 7.59445 19.385Z" fill="#1D1D1B"/>
</svg>
