<svg xmlns="http://www.w3.org/2000/svg" width="40" height="27" fill="none" viewBox="0 0 40 27"><rect width="39" height="26" x=".5" y=".5" fill="#fff" stroke="#D9D9D9" rx="3.5"/><path fill="#28356A" fill-rule="evenodd" d="m17.193 20.754.26-1.63-.579-.013h-2.762l1.92-12.03a.159.159 0 0 1 .156-.132h4.657c1.547 0 2.614.318 3.17.946.262.294.428.602.509.94.084.356.086.78.003 1.298l-.006.038v.332l.262.146c.22.115.394.247.528.398.224.252.368.572.43.951.063.39.042.855-.062 1.38-.119.605-.311 1.132-.572 1.563-.239.397-.544.726-.906.981a3.696 3.696 0 0 1-1.22.545c-.45.115-.963.174-1.526.174h-.362a1.08 1.08 0 0 0-1.078.91l-.028.146-.458 2.873-.021.106c-.006.033-.015.05-.03.061a.077.077 0 0 1-.047.017h-2.238Z" clip-rule="evenodd"/><path fill="#298FC2" fill-rule="evenodd" d="M25.03 10.209a7.88 7.88 0 0 1-.047.27c-.615 3.117-2.716 4.194-5.4 4.194h-1.366a.661.661 0 0 0-.656.555l-.898 5.629c-.033.21.13.4.345.4h2.424c.287 0 .53-.207.576-.487l.023-.121.457-2.863.03-.156a.58.58 0 0 1 .575-.487h.363c2.348 0 4.186-.943 4.723-3.67.225-1.139.109-2.09-.485-2.759a2.312 2.312 0 0 0-.664-.505Z" clip-rule="evenodd"/><path fill="#22284F" fill-rule="evenodd" d="M24.387 9.956a4.863 4.863 0 0 0-.597-.131 7.685 7.685 0 0 0-1.205-.087h-3.65a.584.584 0 0 0-.576.487l-.777 4.861-.022.142a.661.661 0 0 1 .656-.555h1.367c2.684 0 4.785-1.078 5.4-4.194.018-.092.033-.182.047-.27a3.29 3.29 0 0 0-.643-.253Z" clip-rule="evenodd"/><path fill="#28356A" fill-rule="evenodd" d="M18.36 10.225a.585.585 0 0 1 .575-.486h3.65c.433 0 .837.027 1.205.086a4.871 4.871 0 0 1 .735.173c.182.06.35.13.506.211.182-1.152-.002-1.936-.632-2.646-.695-.782-1.948-1.117-3.553-1.117h-4.658a.663.663 0 0 0-.657.556l-1.94 12.154c-.039.24.149.458.394.458h2.876l1.498-9.39Z" clip-rule="evenodd"/></svg>