<svg xmlns="http://www.w3.org/2000/svg" width="40" height="27" fill="none" viewBox="0 0 40 27"><rect width="39" height="26" x=".5" y=".5" fill="#fff" stroke="#D9D9D9" rx="3.5"/><path fill="#172B85" fill-rule="evenodd" d="M12.647 17.84h-2.423l-1.817-6.823c-.086-.314-.27-.592-.539-.723a7.974 7.974 0 0 0-2.22-.722v-.263H9.55c.538 0 .942.395 1.01.853l.943 4.923 2.422-5.776h2.356l-3.635 8.532Zm4.981 0H15.34l1.884-8.53h2.289l-1.885 8.53Zm4.846-6.167c.067-.46.471-.723.943-.723a4.324 4.324 0 0 1 2.22.394l.405-1.837a5.874 5.874 0 0 0-2.087-.394c-2.22 0-3.837 1.181-3.837 2.821 0 1.248 1.145 1.903 1.953 2.298.874.393 1.21.656 1.144 1.05 0 .59-.674.853-1.346.853-.808 0-1.616-.197-2.356-.526l-.404 1.838c.808.328 1.682.46 2.49.46 2.491.064 4.039-1.116 4.039-2.888 0-2.232-3.164-2.363-3.164-3.346Zm11.173 6.168L31.83 9.309h-1.952c-.404 0-.808.263-.943.657l-3.364 7.875h2.355l.47-1.247h2.895l.27 1.247h2.086Zm-3.432-6.234.672 3.215h-1.884l1.212-3.215Z" clip-rule="evenodd"/></svg>