<svg width="33" height="32" viewBox="0 0 33 32" fill="none" xmlns="http://www.w3.org/2000/svg">
<mask id="mask0_6996_12324" style="mask-type:luminance" maskUnits="userSpaceOnUse" x="1" y="0" width="31" height="32">
<path d="M1.01367 0.44397H31.8978V31.3281H1.01367V0.44397Z" fill="white"/>
</mask>
<g mask="url(#mask0_6996_12324)">
<path fill-rule="evenodd" clip-rule="evenodd" d="M16.3934 29.7182C8.73798 29.7182 2.53244 23.5127 2.53244 15.8565C2.53244 8.2011 8.73798 1.99556 16.3934 1.99556C24.0487 1.99556 30.2543 8.2011 30.2543 15.8565C30.2543 23.5119 24.0487 29.7182 16.3934 29.7182ZM24.1062 9.95535H25.7004L21.6102 23.4027H20.0151L17.4699 15.0352H19.0641L20.8135 20.782L24.1062 9.95617V9.95535ZM11.8805 18.3197L9.33613 9.95453H7.74188L10.2855 18.3197H11.8805ZM15.924 9.95535L11.8321 23.4027H13.4264L17.5183 9.95535H15.924ZM16.4565 31.3289C24.985 31.3289 31.8986 24.4153 31.8986 15.886C31.8978 7.35843 24.985 0.44397 16.4557 0.44397C7.92649 0.44397 1.01367 7.35761 1.01367 15.886C1.01367 24.4144 7.92813 31.3289 16.4565 31.3289Z" fill="black"/>
</g>
</svg>
