<svg xmlns="http://www.w3.org/2000/svg" width="24" height="24" fill="none" viewBox="0 0 24 24"><g fill="currentColor" clip-path="url(#a)"><path d="M14.25 19.778c-.031-.32-.246-2.096-.782-3.325a10.03 10.03 0 0 0-2.14-3.207A9.99 9.99 0 0 0 8.134 11.1c-1.224-.539-3.177-.755-3.262-.769-.084-.013-.072-.08 0-.09.35-.048 2.154-.26 3.262-.732a10.339 10.339 0 0 0 3.196-2.172 10.029 10.029 0 0 0 2.139-3.206c.536-1.23.73-3.185.763-3.255.034-.069.07-.034.09 0 .06.382.262 2.143.732 3.255a10.38 10.38 0 0 0 2.164 3.206 10.34 10.34 0 0 0 3.195 2.172c1.225.522 3.03.712 3.353.753.076.01.049.084 0 .084-.333.07-2.236.262-3.353.754a9.99 9.99 0 0 0-3.195 2.146 10.382 10.382 0 0 0-2.164 3.207c-.47 1.111-.728 3.01-.728 3.325 0 .06-.065.094-.074 0ZM4.78 23.802c-.017-.185-.13-1.213-.412-1.924a5.877 5.877 0 0 0-1.126-1.857 5.26 5.26 0 0 0-1.682-1.243c-.644-.311-1.672-.437-1.717-.444-.044-.008-.038-.047 0-.053.185-.028 1.134-.15 1.717-.424A5.453 5.453 0 0 0 3.242 16.6a5.877 5.877 0 0 0 1.126-1.856c.282-.712.384-1.844.402-1.884.017-.04.036-.02.047 0 .031.22.138 1.24.385 1.884.283.711.662 1.33 1.139 1.856a5.453 5.453 0 0 0 1.682 1.257c.644.303 1.594.412 1.765.436.04.006.025.049 0 .049-.176.04-1.177.152-1.765.436a5.261 5.261 0 0 0-1.682 1.243 6.074 6.074 0 0 0-1.139 1.857c-.247.643-.383 1.742-.383 1.924 0 .035-.034.055-.039 0ZM6.29 5.818c-.012-.101-.091-.662-.289-1.05a3.183 3.183 0 0 0-.788-1.013 3.768 3.768 0 0 0-1.177-.677c-.451-.17-1.17-.239-1.202-.243-.031-.004-.026-.026 0-.029.13-.015.794-.082 1.202-.23.451-.17.844-.4 1.177-.687.334-.287.597-.624.788-1.012.198-.388.27-1.006.282-1.028.012-.022.025-.01.032 0 .022.12.097.677.27 1.028.198.388.464.725.797 1.012.334.287.727.516 1.178.686.45.165 1.116.225 1.235.238.028.003.018.027 0 .027-.123.022-.824.082-1.235.238-.451.164-.844.39-1.178.677-.333.287-.599.625-.797 1.013-.173.35-.268.95-.268 1.05 0 .019-.024.03-.027 0Z"/></g><defs><clipPath id="a"><path fill="#fff" d="M0 0h24v24H0z"/></clipPath></defs></svg>
