<svg xmlns="http://www.w3.org/2000/svg" width="24" height="24" fill="none" viewBox="0 0 24 24">
    <path
        fill="#000"
        d="M16.619 0h.17c.137 1.693-.509 2.957-1.294 3.873-.77.91-1.825 1.792-3.531 1.658-.114-1.669.533-2.84 1.317-3.753C14.008.926 15.341.168 16.62 0ZM21.784 17.616v.048c-.48 1.452-1.164 2.697-1.998 3.852-.763 1.048-1.696 2.46-3.364 2.46-1.44 0-2.397-.927-3.873-.952-1.562-.026-2.421.774-3.85.976h-.486c-1.049-.152-1.895-.983-2.512-1.73-1.818-2.212-3.222-5.068-3.484-8.723v-1.074C2.327 9.858 3.6 7.731 5.288 6.7c.892-.548 2.118-1.015 3.482-.806.585.09 1.183.29 1.707.49.496.19 1.117.528 1.705.51.398-.011.794-.219 1.196-.365 1.176-.425 2.329-.912 3.849-.683 1.826.276 3.122 1.087 3.923 2.34-1.545.982-2.766 2.464-2.557 4.995.185 2.298 1.521 3.643 3.19 4.435Z"
    />
</svg>
