<svg width="24" height="24" viewBox="0 0 24 24" fill="none" xmlns="http://www.w3.org/2000/svg">
<path d="M8.375 15C8.375 15.3452 8.65482 15.625 9 15.625C9.34518 15.625 9.625 15.3452 9.625 15H8.375ZM9.625 9.75V9.125H8.375V9.75H9.625ZM11.375 15C11.375 15.3452 11.6548 15.625 12 15.625C12.3452 15.625 12.625 15.3452 12.625 15H11.375ZM12.625 9.75V9.125H11.375V9.75H12.625ZM21.75 15V15.625C22.0952 15.625 22.375 15.3452 22.375 15H21.75ZM21.75 9.75H22.375C22.375 9.40482 22.0952 9.125 21.75 9.125V9.75ZM20.25 9.125C19.9048 9.125 19.625 9.40482 19.625 9.75C19.625 10.0952 19.9048 10.375 20.25 10.375V9.125ZM20.25 14.375C19.9048 14.375 19.625 14.6548 19.625 15C19.625 15.3452 19.9048 15.625 20.25 15.625V14.375ZM5.375 15C5.375 15.3452 5.65482 15.625 6 15.625C6.34518 15.625 6.625 15.3452 6.625 15H5.375ZM6.625 9.75V9.125H5.375V9.75H6.625ZM9 15H9.625V9.75H9H8.375V15H9ZM12 15H12.625V9.75H12H11.375V15H12ZM21.75 15H22.375V9.75H21.75H21.125V15H21.75ZM21.75 9.75V9.125H20.25V9.75V10.375H21.75V9.75ZM21.75 15V14.375H20.25V15V15.625H21.75V15ZM6 15H6.625V9.75H6H5.375V15H6ZM4.40625 6V6.625H17.3438V6V5.375H4.40625V6ZM17.3438 6V6.625C18.1981 6.625 18.875 7.30514 18.875 8.125H19.5H20.125C20.125 6.59765 18.8712 5.375 17.3438 5.375V6ZM19.5 8.125H18.875V16.625H19.5H20.125V8.125H19.5ZM19.5 16.625H18.875C18.875 17.4449 18.1981 18.125 17.3438 18.125V18.75V19.375C18.8712 19.375 20.125 18.1524 20.125 16.625H19.5ZM17.3438 18.75V18.125H4.40625V18.75V19.375H17.3438V18.75ZM4.40625 18.75V18.125C3.55193 18.125 2.875 17.4449 2.875 16.625H2.25H1.625C1.625 18.1524 2.87884 19.375 4.40625 19.375V18.75ZM2.25 16.625H2.875V8.125H2.25H1.625V16.625H2.25ZM2.25 8.125H2.875C2.875 7.30514 3.55193 6.625 4.40625 6.625V6V5.375C2.87884 5.375 1.625 6.59765 1.625 8.125H2.25Z" fill="currentColor"/>
</svg>
