<svg xmlns="http://www.w3.org/2000/svg" width="24" height="24" fill="none" viewBox="0 0 24 24">
    <path
        stroke="currentColor"
        stroke-linecap="round"
        stroke-linejoin="round"
        stroke-width="1.25"
        d="M18 9V7.2c0-1.12 0-1.68-.218-2.108a2 2 0 0 0-.874-.874C16.48 4 15.92 4 14.8 4H7.2c-1.12 0-1.68 0-2.108.218a2 2 0 0 0-.874.874C4 5.52 4 6.08 4 7.2V18l4.019-2.01m0 0C8 15.679 8 15.294 8 14.8v-2.6c0-1.12 0-1.68.218-2.108a2 2 0 0 1 .874-.874C9.52 9 10.08 9 11.2 9h5.6c1.12 0 1.68 0 2.108.218a2 2 0 0 1 .874.874C20 10.52 20 11.08 20 12.2V20l-2.194-1.463c-.3-.2-.45-.3-.611-.37a2.003 2.003 0 0 0-.45-.136C16.571 18 16.391 18 16.031 18H11.2c-1.12 0-1.68 0-2.108-.218a2 2 0 0 1-.874-.874c-.122-.24-.176-.52-.2-.917Z"
    />
</svg>
