<svg xmlns="http://www.w3.org/2000/svg" width="24" height="24" fill="none" viewBox="0 0 24 24">
    <path
        stroke="currentColor"
        stroke-linecap="round"
        stroke-linejoin="round"
        stroke-width="1.25"
        d="m12.128 7.287 2.17-1.232c.476-.27.999-.447 1.54-.522a4.251 4.251 0 0 1 1.617.088 4.108 4.108 0 0 1 1.446.684c.43.318.789.718 1.057 1.175.268.457.44.962.506 1.488.066.525.025 1.06-.122 1.574a4.092 4.092 0 0 1-.73 1.421 4.24 4.24 0 0 1-1.23 1.051l-2.17 1.233m-4.34 2.465-2.17 1.233c-.476.27-.999.447-1.54.522a4.25 4.25 0 0 1-1.617-.088 4.032 4.032 0 0 1-2.503-1.859 3.917 3.917 0 0 1-.384-3.062 4.168 4.168 0 0 1 1.96-2.472l2.17-1.233M9.324 13.729l5.882-3.341"
    />
</svg>
