<svg xmlns="http://www.w3.org/2000/svg" width="24" height="24" fill="none" viewBox="0 0 24 24">
    <rect width="13.2" height="15" x="5.4" y="4.8" stroke="#222" stroke-width="1.2" rx="1.8" />
    <path
        stroke="currentColor"
        stroke-width="1.2"
        d="M7.735 1.2h8.53c.23 0 .438.132.538.334l.036.09.974 3.176H6.188l.973-3.176a.601.601 0 0 1 .574-.424ZM7.735 23.4h8.53c.23 0 .438-.132.538-.334l.036-.09.974-3.176H6.188l.973 3.176c.077.252.31.424.574.424Z"
    />
    <path
        stroke="#928C85"
        stroke-linecap="round"
        stroke-linejoin="round"
        stroke-width=".9"
        d="m11.68 10.225.729-.727A1.691 1.691 0 0 1 13.627 9a1.744 1.744 0 0 1 1.226.515 1.764 1.764 0 0 1 .516 1.226 1.714 1.714 0 0 1-.497 1.219l-.728.727m-1.456 1.456-.727.728a1.693 1.693 0 0 1-1.219.497 1.755 1.755 0 0 1-1.226-.516 1.755 1.755 0 0 1-.515-1.226 1.702 1.702 0 0 1 .497-1.219l.727-.727M11.241 13.128l1.887-1.887"
    />
</svg>
