<svg xmlns="http://www.w3.org/2000/svg" width="24" height="24" fill="none" viewBox="0 0 24 24"><path fill="currentColor" d="M7.8 4.5v.75h7.5v-1.5H7.8zm10.5 3h-.75v9h1.5v-9zm-3 12v-.75H7.8v1.5h7.5zm-10.5-3h.75v-9h-1.5v9zm3 3v-.75a2.25 2.25 0 0 1-2.25-2.25h-1.5a3.75 3.75 0 0 0 3.75 3.75zm10.5-3h-.75a2.25 2.25 0 0 1-2.25 2.25v1.5a3.75 3.75 0 0 0 3.75-3.75zm-3-12v.75a2.25 2.25 0 0 1 2.25 2.25h1.5a3.75 3.75 0 0 0-3.75-3.75zm-7.5 0v-.75A3.75 3.75 0 0 0 4.05 7.5h1.5A2.25 2.25 0 0 1 7.8 5.25z"/><path stroke="currentColor" stroke-width="1.5" d="M8.003 1.5h7.094a.75.75 0 0 1 .719.537l.73 2.463H6.554l.73-2.463a.75.75 0 0 1 .72-.537ZM8.003 22.5h7.094a.75.75 0 0 0 .719-.537l.73-2.463H6.554l.73 2.463a.75.75 0 0 0 .72.537Z"/></svg>
