<svg xmlns="http://www.w3.org/2000/svg" width="24" height="24" fill="none" viewBox="0 0 24 24">
    <path
        stroke="currentColor"
        stroke-linecap="round"
        stroke-linejoin="round"
        stroke-width="1.25"
        d="M19 21c0-.337-.018-.67-.054-1M5 3c0 .337.018.67.054 1M5 21a9.28 9.28 0 0 1 6.73-8.923l.54-.154A9.28 9.28 0 0 0 19 3m-4 1H5.054M12.5 8H6.462M9 20h9.946M11.5 16h6.038m1.408 4a9.262 9.262 0 0 0-1.408-4m0 0a9.27 9.27 0 0 0-5.269-3.923l-.538-.154A9.27 9.27 0 0 1 6.462 8M5.054 4a9.261 9.261 0 0 0 1.408 4"
    />
</svg>
