<svg xmlns="http://www.w3.org/2000/svg" width="24" height="24" fill="none" viewBox="0 0 24 24">
    <path
        stroke="currentColor"
        stroke-linecap="round"
        stroke-linejoin="round"
        stroke-width=".9"
        d="M12.9 3H6.6a1.8 1.8 0 0 0-1.8 1.8v14.4A1.8 1.8 0 0 0 6.6 21h10.8a1.8 1.8 0 0 0 1.8-1.8V9.3L12.9 3Z"
    />
    <path
        stroke="currentColor"
        stroke-linecap="round"
        stroke-linejoin="round"
        stroke-width=".9"
        d="M13 3.5v6h6"
    />
    <path
        fill="currentColor"
        d="M6.9 18.516V15.06h1.434c.967 0 1.587.692 1.587 1.752 0 1.026-.578 1.704-1.633 1.704H6.9Zm.791-.668h.537c.596 0 .888-.377.888-1.036 0-.655-.296-1.083-.874-1.083h-.55v2.119ZM11.91 18.6c-1.045 0-1.702-.767-1.702-1.798 0-1.035.657-1.802 1.702-1.802 1.041 0 1.698.767 1.698 1.802 0 1.032-.657 1.798-1.698 1.798Zm.005-.65c.592 0 .888-.497.888-1.148 0-.655-.296-1.161-.888-1.161-.597 0-.902.506-.902 1.161 0 .65.305 1.148.902 1.148ZM15.592 18.595c-1.004 0-1.689-.761-1.689-1.793 0-1.03.662-1.802 1.689-1.802.38 0 .708.093.944.27.31.227.49.566.532.956h-.787c-.046-.325-.305-.566-.694-.566-.587 0-.879.487-.879 1.142 0 .66.343 1.138.884 1.138.42 0 .68-.274.717-.631h.791c-.023.343-.18.664-.416.896-.26.256-.611.39-1.092.39Z"
    />
</svg>
