<svg xmlns="http://www.w3.org/2000/svg" width="24" height="24" fill="none" viewBox="0 0 24 24">
    <path
        stroke="currentColor"
        stroke-linecap="square"
        stroke-linejoin="round"
        stroke-width="1.25"
        d="M19.263 16a3.986 3.986 0 0 0 1.522-1.98c.278-.8.287-1.665.024-2.47a3.98 3.98 0 0 0-1.483-2.007 4.169 4.169 0 0 0-2.418-.766h-1.03a6.296 6.296 0 0 0-1.346-2.53 6.53 6.53 0 0 0-2.347-1.705 6.707 6.707 0 0 0-5.71.2A6.491 6.491 0 0 0 4.26 6.605a6.266 6.266 0 0 0-1.155 2.617 6.183 6.183 0 0 0 .137 2.845 6.305 6.305 0 0 0 1.4 2.502"
    />
    <path
        stroke="currentColor"
        stroke-width="1.25"
        d="M11.947 12.5V20m0 0L16 16.505M11.947 20 8 16.505"
    />
</svg>
