<svg width="24" height="24" viewBox="0 0 24 24" fill="none" xmlns="http://www.w3.org/2000/svg">
<path d="M9.37102 5.25L13.8813 9.86444C14.7733 10.7764 15.3809 11.9385 15.6272 13.2038C15.8735 14.4691 15.7475 15.7807 15.2651 16.9728C14.7827 18.1648 13.9656 19.1837 12.9172 19.9005C11.8687 20.6174 10.636 21 9.375 21C8.11397 21 6.88126 20.6174 5.83281 19.9005C4.78435 19.1837 3.96726 18.1648 3.48487 16.9728C3.00249 15.7807 2.87648 14.4691 3.1228 13.2038C3.36912 11.9385 3.9767 10.7764 4.86867 9.86444L9.37102 5.25Z" stroke="currentColor" stroke-width="1.25" stroke-linecap="round" stroke-linejoin="round"/>
<path d="M20.25 6.75C20.25 7.99264 19.2426 9 18 9C16.7574 9 15.75 7.99264 15.75 6.75C15.75 5.50736 16.7574 4.5 18 4.5C19.2426 4.5 20.25 5.50736 20.25 6.75Z" stroke="#222222" stroke-width="1.25" stroke-linecap="round" stroke-linejoin="round"/>
<path d="M15 2.625C15 3.24632 14.4963 3.75 13.875 3.75C13.2537 3.75 12.75 3.24632 12.75 2.625C12.75 2.00368 13.2537 1.5 13.875 1.5C14.4963 1.5 15 2.00368 15 2.625Z" stroke="#222222" stroke-width="1.25" stroke-linecap="round" stroke-linejoin="round"/>
</svg>
