<svg width="24" height="24" viewBox="0 0 24 24" fill="none" xmlns="http://www.w3.org/2000/svg">
<path d="M8.34375 13.7566C9.03639 13.7566 9.70066 13.4759 10.1904 12.9762C10.6802 12.4765 10.9554 11.7988 10.9554 11.0921C10.9554 9.62132 10.433 8.96053 9.91071 7.89474C8.79086 5.61075 9.67671 3.57403 12 1.5C12.5223 4.16447 14.0893 6.72237 16.1786 8.42763C18.2679 10.1329 19.3125 12.1579 19.3125 14.2895C19.3125 15.2692 19.1234 16.2393 18.7559 17.1445C18.3884 18.0496 17.8497 18.8721 17.1707 19.5649C16.4917 20.2576 15.6856 20.8072 14.7984 21.1821C13.9112 21.557 12.9603 21.75 12 21.75C11.0397 21.75 10.0888 21.557 9.20163 21.1821C8.31443 20.8072 7.50831 20.2576 6.82928 19.5649C6.15025 18.8721 5.61162 18.0496 5.24413 17.1445C4.87664 16.2393 4.6875 15.2692 4.6875 14.2895C4.6875 13.0606 5.13983 11.8446 5.73214 11.0921C5.73214 11.7988 6.00729 12.4765 6.49706 12.9762C6.98684 13.4759 7.65111 13.7566 8.34375 13.7566Z" stroke="currentColor" stroke-width="1.25" stroke-linecap="round" stroke-linejoin="round"/>
</svg>
