<svg xmlns="http://www.w3.org/2000/svg" width="24" height="24" fill="none" viewBox="0 0 24 24">
    <path
        stroke="currentColor"
        stroke-linecap="round"
        stroke-linejoin="round"
        stroke-width="1.25"
        d="M19 12v9H5v-9M20 8H4a1 1 0 0 0-1 1v2a1 1 0 0 0 1 1h16a1 1 0 0 0 1-1V9a1 1 0 0 0-1-1ZM12 21V8M12 8H8.143c-.568 0-1.114-.263-1.515-.732C6.226 6.798 6 6.163 6 5.5s.226-1.299.628-1.768C7.029 3.263 7.575 3 8.143 3 11.143 3 12 8 12 8ZM12 8h3.857c.569 0 1.114-.263 1.515-.732.402-.47.628-1.105.628-1.768s-.226-1.299-.628-1.768C16.971 3.263 16.425 3 15.857 3 12.857 3 12 8 12 8Z"
    />
</svg>
