<svg xmlns="http://www.w3.org/2000/svg" width="24" height="24" fill="none" viewBox="0 0 24 24">
    <circle cx="12" cy="12" r="8.438" stroke="currentColor" stroke-width="1.125" />
    <path
        fill="currentColor"
        d="M11.283 15.375v-1.24h1.23v1.24h-1.23Zm.115-2.131c.008-.812.221-1.186.797-1.685.407-.348.868-.607.868-1.15 0-.482-.38-.821-.992-.821-.744 0-1.178.5-1.196 1.177H9.75c.035-1.141.824-2.14 2.356-2.14 1.32 0 2.144.731 2.144 1.757 0 .695-.354 1.114-.735 1.426-.434.348-.727.535-.895.74-.15.188-.195.375-.204.696h-1.018Z"
    />
</svg>
