<svg xmlns="http://www.w3.org/2000/svg" width="96" height="16" fill="none" viewBox="0 0 96 16">
    <path
        fill="currentColor"
        d="M42.28 15.397h-2.43L32.11 6.334v9.063h-3.146V.475h2.36l7.812 9.31V.476h3.146v14.922ZM96 15.397h-2.43l-7.742-9.063v9.063h-3.145V.475h2.359l7.813 9.31V.476H96v14.922ZM2.982 12.07v3.296H0V.516h2.982v7.275L9.07.517h3.534L7.18 7.047l5.984 8.319H9.467l-4.3-5.921-2.175 2.624h-.01ZM18.781.527h3.228v14.849H18.78V.527ZM51.084 10.964c.327 1.953 2.053 2.221 3.248 2.221 1.133 0 2.86-.33 2.86-1.85 0-3.161-8.732-1.126-8.732-6.675 0-3.058 2.839-4.495 5.484-4.495 3.064 0 5.882 1.354 5.882 4.785l-3.125-.455c-.388-1.726-1.89-1.788-2.9-1.788-1.011 0-2.216.434-2.216 1.685 0 1.105.694 1.353 4.381 2.242 1.093.269 4.36.961 4.36 4.33 0 2.728-2.093 4.763-6.106 4.763-3.289 0-6.25-1.622-6.25-5.28l3.124.517h-.01ZM69.273 9.59 63.871.526h3.635l3.432 5.87 3.41-5.87h3.596L72.5 9.682v5.694h-3.227V9.589Z"
    />
</svg>
