<svg xmlns="http://www.w3.org/2000/svg" width="24" height="24" fill="none" viewBox="0 0 24 24">
    <path
        fill="currentColor"
        d="m14.77 15.571-.428.455.91.858.428-.455-.91-.858ZM19 12l.455.429a.625.625 0 0 0 0-.858L19 12Zm-3.32-4.429-.429-.455-.909.858.429.455.91-.858Zm2.565 5.054h.625v-1.25h-.625v1.25Zm-7.549-1.25h-.625v1.25h.625v-1.25Zm-4.941-6.75h5.284v-1.25H5.755v1.25Zm5.284 14.75H5.755v1.25h5.284v-1.25ZM5.625 19.2V4.8h-1.25v14.4h1.25Zm.13.175a.108.108 0 0 1-.08-.038.197.197 0 0 1-.05-.137h-1.25c0 .752.584 1.425 1.38 1.425v-1.25Zm0-16c-.796 0-1.38.673-1.38 1.425h1.25c0-.06.023-.107.05-.137a.108.108 0 0 1 .08-.038v-1.25Zm9.925 13.054 3.775-4-.91-.858-3.774 4 .91.858Zm3.775-4.858-3.775-4-.91.858 3.775 4 .91-.858Zm-1.21-.196h-7.549v1.25h7.55v-1.25Z"
    />
</svg>
