<svg width="24" height="24" viewBox="0 0 24 24" fill="none" xmlns="http://www.w3.org/2000/svg">
<path d="M9.45487 6.47164C9.45487 5.26658 8.62731 4.062 5.38294 6.98814C0.801977 11.1198 2.32899 20.416 2.83798 20.9325C3.34697 21.4489 8.94587 18.8666 9.45487 17.8337C9.96386 16.8008 8.94588 15.2514 9.96386 13.1856M14.5448 6.47163C14.5448 5.26656 15.3723 4.06199 18.6167 6.98812C23.1977 11.1197 21.6707 20.416 21.1617 20.9324C20.6527 21.4489 15.0538 18.8666 14.5448 17.8337C14.0358 16.8008 15.0538 15.2514 14.0358 13.1856M14.3649 10.2894C11.935 8.65787 11.9998 5.62016 11.9998 3C11.9998 5.62016 12.0646 8.65787 9.63481 10.2894" stroke="currentColor" stroke-width="1.25" stroke-linecap="round" stroke-linejoin="round"/>
</svg>
