<svg xmlns="http://www.w3.org/2000/svg" width="24" height="24" fill="none" viewBox="0 0 24 24">
    <path
        stroke="currentColor"
        stroke-linecap="round"
        stroke-linejoin="round"
        stroke-width=".9"
        d="M12.9 3H6.6a1.8 1.8 0 0 0-1.8 1.8v14.4A1.8 1.8 0 0 0 6.6 21h10.8a1.8 1.8 0 0 0 1.8-1.8V9.3L12.9 3Z"
    />
    <path
        stroke="currentColor"
        stroke-linecap="round"
        stroke-linejoin="round"
        stroke-width=".9"
        d="M13 3.5v6h6"
    />
    <path
        fill="currentColor"
        d="M7.5 18.6V15h1.605c.427 0 .747.116.965.334.219.218.345.508.345.861 0 .682-.466 1.157-1.213 1.157H8.34V18.6H7.5Zm.839-2.898v.996h.703c.35 0 .538-.198.538-.503 0-.314-.194-.493-.533-.493h-.708ZM10.834 18.6V15h1.504C13.35 15 14 15.721 14 16.824c0 1.07-.606 1.776-1.712 1.776h-1.455Zm.83-.697h.562c.626 0 .931-.392.931-1.079 0-.682-.31-1.127-.916-1.127h-.577v2.206ZM14.452 18.6V15H17.1v.702h-1.823v.783h1.522v.673h-1.522V18.6h-.825Z"
    />
</svg>
