<svg xmlns="http://www.w3.org/2000/svg" width="24" height="24" fill="none" viewBox="0 0 24 24"><path stroke="currentColor" stroke-linecap="round" stroke-linejoin="round" stroke-width="2" d="M8.45 9.299a14.602 14.602 0 0 0 2.847 4.01 14.6 14.6 0 0 0 4.01 2.846c.124.06.187.09.266.113.28.081.624.023.862-.147.067-.048.124-.105.238-.22.35-.35.525-.524.7-.638a2 2 0 0 1 2.18 0c.176.114.351.289.7.638l.196.195c.531.532.797.797.941 1.083a2 2 0 0 1 0 1.805c-.144.285-.41.551-.941 1.083l-.158.157c-.53.53-.794.795-1.154.997-.4.224-1.02.386-1.479.384-.413 0-.695-.08-1.26-.241a19.039 19.039 0 0 1-8.283-4.873 19.039 19.039 0 0 1-4.873-8.284c-.16-.565-.24-.847-.242-1.26a3.377 3.377 0 0 1 .384-1.478c.203-.36.467-.625.997-1.155l.158-.157c.531-.532.797-.797 1.082-.942a2 2 0 0 1 1.806 0c.285.145.55.41 1.082.942l.195.195c.35.35.524.524.639.7a2 2 0 0 1 0 2.18c-.114.176-.29.35-.639.7-.114.115-.171.172-.22.239-.17.237-.228.581-.146.862.023.079.053.141.113.266Z"/></svg>
