<svg xmlns="http://www.w3.org/2000/svg" width="24" height="24" fill="none" viewBox="0 0 24 24">
    <path
        stroke="currentColor"
        stroke-linecap="round"
        stroke-linejoin="round"
        stroke-width="1.25"
        d="M16.66 9.055c1.713.963 2.57 1.444 2.854 2.077a2.112 2.112 0 0 1 0 1.736c-.285.633-1.141 1.114-2.853 2.077l-6.625 3.727c-1.655.93-2.483 1.396-3.161 1.32a2.112 2.112 0 0 1-1.476-.863C5 18.575 5 17.626 5 15.726V8.274c0-1.9 0-2.85.4-3.403a2.112 2.112 0 0 1 1.475-.863c.678-.076 1.506.39 3.161 1.32l6.625 3.727Z"
    />
</svg>
