<svg xmlns="http://www.w3.org/2000/svg" width="24" height="24" fill="none" viewBox="0 0 24 24">
    <path
        stroke="currentColor"
        stroke-linecap="round"
        stroke-linejoin="round"
        stroke-width="1.3"
        d="M12 12a4 4 0 1 0 0-8 4 4 0 0 0 0 8Z"
    />
    <path
        stroke="currentColor"
        stroke-linecap="square"
        stroke-linejoin="round"
        stroke-width="1.3"
        d="M9.527 14.47a5.98 5.98 0 0 0 2.473.532c.882 0 1.72-.19 2.473-.532h.003c.52-.237.781-.355.926-.395.15-.043.238-.058.394-.07a3 3 0 0 1 .488.015c.092.007.174.017.25.03a3 3 0 0 1 2.418 2.417c.048.265.048.583.048 1.218v1.716c0 .56 0 .84-.109 1.053a1 1 0 0 1-.437.437C18.24 21 17.96 21 17.4 21H6.6c-.56 0-.84 0-1.054-.109a1 1 0 0 1-.437-.437C5 20.24 5 19.96 5 19.401v-1.716c0-.635 0-.953.048-1.218a3 3 0 0 1 2.418-2.417c.077-.014.158-.023.25-.03.225-.018.337-.026.488-.015.156.012.243.027.394.07.145.04.405.158.926.394h0l.003.002Z"
    />
</svg>
