<svg xmlns="http://www.w3.org/2000/svg" width="24" height="24" fill="none" viewBox="0 0 24 24">
    <rect
        width="16.875"
        height="16.875"
        x="3.563"
        y="3.563"
        stroke="currentColor"
        stroke-width="1.125"
        rx=".938"
    />
    <path
        fill="currentColor"
        d="M6.375 13.875c0-.207.168-.375.375-.375h1.5c.207 0 .375.168.375.375V18h-2.25v-4.125ZM10.875 11.625c0-.207.168-.375.375-.375h1.5c.207 0 .375.168.375.375V18h-2.25v-6.375ZM15.375 7.875c0-.207.168-.375.375-.375h1.5c.207 0 .375.168.375.375V18h-2.25V7.875Z"
    />
</svg>
