<svg xmlns="http://www.w3.org/2000/svg" width="24" height="24" fill="none" viewBox="0 0 24 24">
    <path
        stroke="currentColor"
        stroke-linecap="round"
        stroke-linejoin="round"
        stroke-width="1.25"
        d="M10.201 13.795 20.708 3.292M10.5 14.268l2.382 4.765c.576 1.151.864 1.727 1.226 1.881.315.134.675.11.969-.065.339-.202.547-.81.963-2.03L20.54 5.637c.363-1.061.544-1.592.42-1.943a1.072 1.072 0 0 0-.654-.654c-.35-.124-.882.057-1.943.42L5.18 7.96c-1.218.416-1.827.624-2.03.963-.174.294-.198.654-.064.968.154.363.73.651 1.881 1.227L9.733 13.5c.19.095.284.143.366.206.073.056.139.122.195.195.063.082.11.177.206.367Z"
    />
</svg>
